<?xml version="1.0" encoding="utf-8"?>
<!-- Generator: Adobe Illustrator 19.1.0, SVG Export Plug-In . SVG Version: 6.00 Build 0)  -->
<svg version="1.1" id="Layer_1" xmlns="http://www.w3.org/2000/svg" xmlns:xlink="http://www.w3.org/1999/xlink" x="0px" y="0px"
	 viewBox="-92 209.3 425.7 375.7" style="enable-background:new -92 209.3 425.7 375.7;" xml:space="preserve">
<style type="text/css">
	.st0{fill:#FFFFFF;}
	.st1{fill:#FFCE06;}
</style>
<polygon points="-89.1,213.6 120.3,575.2 330.9,213.6 "/>
<path class="st0" d="M154.5,346.3h-14.6c4.9-4.7,11-10.7,12.2-19.1c0.3-1.9,0.4-4.3,0-6.4c-1.3-6.9-7.1-13.2-15.4-13
	c-8.8,0.2-12.8,6.4-16.2,12.4c-3.1-6-7.1-12.1-15.7-12.3c-8-0.2-13.4,4.9-15.3,10.4c-3.7,11.1,4.8,22.3,11.4,27.9H86.5l-6.1-7.8
	v25.9l6.1-8.7h28.1v63.8h0.2l-9.1,8.4h28.8l-8.2-8.4v-63.8h28.2l6.1,8.7v-25.8L154.5,346.3z M136.4,317c2.8-0.5,5,1.7,6.1,3.9
	c1.2,7.4-2.2,12.5-6.1,16.3c-3,3-6.9,5.5-10.1,7.3C126.2,334.2,127.3,318.5,136.4,317z M100.4,318.4c1.1-1,3.7-1.9,5.8-1.1
	c7.8,3.2,8.7,17.6,8.7,27.2c-3.1-1.6-7-4.1-10.1-7.1C100.7,333.3,94.6,323.7,100.4,318.4z"/>
<g>
	<path class="st1" d="M240.3,322.9c-9.3,16.8-19.1,33.3-28.6,50c-18.9,33.3-38.7,66.1-57.8,99.4c-7.1,12.5-14.5,24.9-21.6,37.3
		c-2.3,4.1-4.3,8.4-7.1,12.1c-0.4-17.2,0.1-37.6-0.2-51.7c0-2.1-0.3-4.5,0-6.1c0.2-1.1,1.5-2.7,2.3-4.2
		c17.9-31.1,35.7-62.3,53.9-93.3c4.7-8,9.3-15.9,14.1-24.2c1.5-2.7,3.8-5.8,4.2-8.5c0.8-5.2-2.5-9-6.5-10.4c2.6-0.3,6.7-0.1,9.2-0.2
		C212.9,322.7,226.9,323,240.3,322.9z"/>
	<path class="st1" d="M49.9,323.2c-4.1,1.7-8.1,5.8-6.2,12.1c0.8,2.7,2.9,5.4,4.5,8.2c13.6,24.1,27.6,48.1,41.5,72.1
		c8.4,14.5,16.9,29,25.5,44c0.8,1.4,2.1,2.9,2.3,3.9c0.5,2,0,4.9,0,7.5c0,17.3,0,35.5,0,50.8c-1-0.6-1.6-1.8-2.2-2.8
		c-7.6-13.3-15.6-26.8-23.3-40.2c-29.6-51.5-59.8-103.4-89.5-155c-0.1-0.1-0.2-0.4,0-0.5C18.3,323.2,34.1,323.2,49.9,323.2z"/>
	<path class="st1" d="M202.2,323c-2.5,0.1-6.6-0.2-9.2,0.2c4.1,1.4,7.3,5.2,6.5,10.4c-0.4,2.7-2.6,5.9-4.2,8.5
		c-4.9,8.3-9.5,16.2-14.1,24.2c-18.2,31-36,62.3-53.9,93.3c-0.9,1.5-2.1,3.1-2.3,4.2c-0.3,1.5,0,3.9,0,6.1
		c0.2,14.1-0.3,34.5,0.2,51.7c2.8-3.7,4.8-8,7.1-12.1c7.1-12.4,14.5-24.8,21.6-37.3c19.1-33.3,38.9-66.1,57.8-99.4
		c9.5-16.7,19.2-33.3,28.6-50C226.9,323,212.9,322.7,202.2,323z M2.5,323.2c-0.2,0-0.1,0.3,0,0.5c29.7,51.6,59.9,103.5,89.5,155
		c7.7,13.4,15.7,27,23.3,40.2c0.5,1,1.2,2.2,2.2,2.8c0-15.3,0-33.5,0-50.8c0-2.5,0.5-5.5,0-7.5c-0.2-1-1.5-2.5-2.3-3.9
		c-8.6-15-17-29.4-25.5-44c-13.9-23.9-27.9-48-41.5-72.1c-1.6-2.8-3.7-5.6-4.5-8.2c-1.9-6.4,2.1-10.4,6.2-12.1
		C34.1,323.2,18.3,323.2,2.5,323.2z"/>
</g>
<path class="st1" d="M-89.1,213.6l209.4,361.6l210.6-361.6H-89.1z M-38.8,288.7L-38.8,288.7h319.2l-160,274.7L-38.8,288.7z"/>
<g>
	<path d="M-10.9,230.5l-15,48.9H-33l-16.8-48.9h8.1l12.3,32.6l10.3-32.6H-10.9z"/>
	<path d="M27.9,279.4h-8.2l-4.8-13.7H-0.3l-4.8,13.7h-8.2l16.8-48.8h7.7L27.9,279.4z M12.1,257.8l-4.8-13.7l-5,13.7H12.1z"/>
	<path d="M63.2,279.4H32.9v-48.9h7.7v41h22.6V279.4z"/>
	<path d="M100.8,279.4H70.5v-48.9h28.8v7.8H78.2v12h14.2v7.9H78.2v13.3h22.6V279.4z"/>
	<path d="M141.2,279.4h-6.9l-18.6-33.1v33.1H108v-48.9h7.7l17.8,31.2v-31.2h7.7V279.4z"/>
	<path d="M178.6,237.4h-11.3v42h-7.7v-42h-11.2v-6.9h30.2L178.6,237.4L178.6,237.4z"/>
	<path d="M196.3,279.4h-7.9v-48.9h7.9V279.4z"/>
	<path d="M239.3,279.4h-6.9l-18.6-33.1v33.1H206v-48.9h7.7l17.8,31.2v-31.2h7.7L239.3,279.4L239.3,279.4z"/>
	<path d="M276.8,279.4h-30.3v-48.9h28.8v7.8h-21.1v12h14.2v7.9h-14.2v13.3h22.6V279.4z"/>
</g>
</svg>
