<?xml version="1.0" encoding="utf-8"?>
<!-- Generator: Adobe Illustrator 19.1.0, SVG Export Plug-In . SVG Version: 6.00 Build 0)  -->
<svg version="1.1" id="Layer_1" xmlns="http://www.w3.org/2000/svg" xmlns:xlink="http://www.w3.org/1999/xlink" x="0px" y="0px"
	 viewBox="0 0 425.7 375.7" style="enable-background:new 0 0 425.7 375.7;" xml:space="preserve">
<style type="text/css">
	.st0{fill-rule:evenodd;clip-rule:evenodd;fill:#FFFFFF;}
	.st1{fill-rule:evenodd;clip-rule:evenodd;fill:#FFCE06;}
</style>
<path class="st0" d="M246.5,137h-14.6c4.9-4.7,11-10.7,12.2-19.1c0.3-1.9,0.4-4.3,0-6.4c-1.3-6.9-7.1-13.2-15.4-13
	c-8.8,0.2-12.8,6.4-16.2,12.4c-3.1-6-7.1-12.1-15.7-12.3c-8-0.2-13.4,4.9-15.3,10.4c-3.7,11.1,4.8,22.3,11.4,27.9h-14.4l-6.1-7.8
	V155l6.1-8.7h28.1v63.8h0.2l-9.1,8.4h28.8l-8.2-8.4v-63.8h28.2l6.1,8.7v-25.8L246.5,137z M228.4,107.7c2.8-0.5,5,1.7,6.1,3.9
	c1.2,7.4-2.2,12.5-6.1,16.3c-3,3-6.9,5.5-10.1,7.3C218.2,124.9,219.3,109.2,228.4,107.7z M192.4,109.1c1.1-1,3.7-1.9,5.8-1.1
	c7.8,3.2,8.7,17.6,8.7,27.2c-3.1-1.6-7-4.1-10.1-7.1C192.7,124,186.6,114.4,192.4,109.1z"/>
<g>
	<path class="st1" d="M332.3,113.6c-9.3,16.8-19.1,33.3-28.6,50c-18.9,33.3-38.7,66.1-57.8,99.4c-7.1,12.5-14.5,24.9-21.6,37.3
		c-2.3,4.1-4.3,8.4-7.1,12.1c-0.4-17.2,0.1-37.6-0.2-51.7c0-2.1-0.3-4.5,0-6.1c0.2-1.1,1.5-2.7,2.3-4.2
		c17.9-31.1,35.7-62.3,53.9-93.3c4.7-8,9.3-15.9,14.1-24.2c1.5-2.7,3.8-5.8,4.2-8.5c0.8-5.2-2.5-9-6.5-10.4c2.6-0.3,6.7-0.1,9.2-0.2
		C304.9,113.4,318.9,113.7,332.3,113.6z"/>
	<path class="st1" d="M141.9,113.9c-4.1,1.7-8.1,5.8-6.2,12.1c0.8,2.7,2.9,5.4,4.5,8.2c13.6,24.1,27.6,48.1,41.5,72.1
		c8.4,14.5,16.9,29,25.5,44c0.8,1.4,2.1,2.9,2.3,3.9c0.5,2,0,4.9,0,7.5c0,17.3,0,35.5,0,50.8c-1-0.6-1.6-1.8-2.2-2.8
		c-7.6-13.3-15.6-26.8-23.3-40.2c-29.6-51.5-59.8-103.4-89.5-155c-0.1-0.1-0.2-0.4,0-0.5C110.3,113.9,126.1,113.9,141.9,113.9z"/>
	<path class="st1" d="M294.2,113.7c-2.5,0.1-6.6-0.2-9.2,0.2c4.1,1.4,7.3,5.2,6.5,10.4c-0.4,2.7-2.6,5.9-4.2,8.5
		c-4.9,8.3-9.5,16.2-14.1,24.2c-18.2,31-36,62.3-53.9,93.3c-0.9,1.5-2.1,3.1-2.3,4.2c-0.3,1.5,0,3.9,0,6.1
		c0.2,14.1-0.3,34.5,0.2,51.7c2.8-3.7,4.8-8,7.1-12.1c7.1-12.4,14.5-24.8,21.6-37.3c19.1-33.3,38.9-66.1,57.8-99.4
		c9.5-16.7,19.2-33.3,28.6-50C318.9,113.7,304.9,113.4,294.2,113.7z M94.5,113.9c-0.2,0-0.1,0.3,0,0.5
		c29.7,51.6,59.9,103.5,89.5,155c7.7,13.4,15.7,27,23.3,40.2c0.5,1,1.2,2.2,2.2,2.8c0-15.3,0-33.5,0-50.8c0-2.5,0.5-5.5,0-7.5
		c-0.2-1-1.5-2.5-2.3-3.9c-8.6-15-17-29.4-25.5-44c-13.9-23.9-27.9-48-41.5-72.1c-1.6-2.8-3.7-5.6-4.5-8.2
		c-1.9-6.4,2.1-10.4,6.2-12.1C126.1,113.9,110.3,113.9,94.5,113.9z"/>
</g>
<path class="st1" d="M2.9,4.3l209.4,361.6L422.9,4.3H2.9z M53.2,79.4L53.2,79.4l319.2,0l-160,274.7L53.2,79.4z"/>
<g>
	<path d="M81.1,21.2L66.1,70.1H59L42.2,21.2h8.1l12.3,32.6l10.3-32.6H81.1z"/>
	<path d="M119.9,70.1h-8.2l-4.8-13.7H91.7l-4.8,13.7h-8.2l16.8-48.8h7.7L119.9,70.1z M104.1,48.5l-4.8-13.7l-5,13.7H104.1z"/>
	<path d="M155.2,70.1h-30.3V21.2h7.7v41h22.6V70.1z"/>
	<path d="M192.8,70.1h-30.3V21.2h28.8V29h-21.1v12h14.2v7.9h-14.2v13.3h22.6V70.1z"/>
	<path d="M233.2,70.1h-6.9L207.7,37v33.1H200V21.2h7.7l17.8,31.2V21.2h7.7V70.1z"/>
	<path d="M270.6,28.1h-11.3v42h-7.7v-42h-11.2v-6.9h30.2V28.1z"/>
	<path d="M288.3,70.1h-7.9V21.2h7.9V70.1z"/>
	<path d="M331.3,70.1h-6.9L305.8,37v33.1H298V21.2h7.7l17.8,31.2V21.2h7.7V70.1z"/>
	<path d="M368.8,70.1h-30.3V21.2h28.8V29h-21.1v12h14.2v7.9h-14.2v13.3h22.6V70.1z"/>
</g>
</svg>
